<mxfile host="Electron" modified="2023-12-14T11:01:14.404Z" agent="Mozilla/5.0 (Windows NT 10.0; Win64; x64) AppleWebKit/537.36 (KHTML, like Gecko) draw.io/22.1.2 Chrome/114.0.5735.289 Electron/25.9.4 Safari/537.36" etag="lEGDX6NwIhmw_WYi-Obl" version="22.1.2" type="device">
  <diagram name="PÃ¡gina-1" id="UdgWECzzQWAbMC0G0XgP">
    <mxGraphModel dx="592" dy="346" grid="1" gridSize="10" guides="1" tooltips="1" connect="1" arrows="1" fold="1" page="1" pageScale="1" pageWidth="827" pageHeight="1169" math="0" shadow="0">
      <root>
        <mxCell id="0" />
        <mxCell id="1" parent="0" />
        <mxCell id="BXMKrsl_uvt6viF5olLC-1" value="" style="rounded=0;whiteSpace=wrap;html=1;" vertex="1" parent="1">
          <mxGeometry x="160" y="200" width="400" height="120" as="geometry" />
        </mxCell>
        <mxCell id="BXMKrsl_uvt6viF5olLC-2" value="" style="rounded=0;whiteSpace=wrap;html=1;" vertex="1" parent="1">
          <mxGeometry x="300" y="210" width="140" height="100" as="geometry" />
        </mxCell>
        <mxCell id="BXMKrsl_uvt6viF5olLC-3" value="" style="endArrow=classic;startArrow=classic;html=1;rounded=0;" edge="1" parent="1">
          <mxGeometry width="50" height="50" relative="1" as="geometry">
            <mxPoint x="160" y="190" as="sourcePoint" />
            <mxPoint x="560" y="190" as="targetPoint" />
          </mxGeometry>
        </mxCell>
        <mxCell id="BXMKrsl_uvt6viF5olLC-4" value="200mm" style="edgeLabel;html=1;align=center;verticalAlign=middle;resizable=0;points=[];" vertex="1" connectable="0" parent="BXMKrsl_uvt6viF5olLC-3">
          <mxGeometry x="-0.1107" y="-2" relative="1" as="geometry">
            <mxPoint x="22" y="-2" as="offset" />
          </mxGeometry>
        </mxCell>
        <mxCell id="BXMKrsl_uvt6viF5olLC-5" value="" style="endArrow=classic;startArrow=classic;html=1;rounded=0;" edge="1" parent="1">
          <mxGeometry width="50" height="50" relative="1" as="geometry">
            <mxPoint x="570" y="320" as="sourcePoint" />
            <mxPoint x="570" y="200" as="targetPoint" />
          </mxGeometry>
        </mxCell>
        <mxCell id="BXMKrsl_uvt6viF5olLC-6" value="60mm" style="edgeLabel;html=1;align=center;verticalAlign=middle;resizable=0;points=[];" vertex="1" connectable="0" parent="BXMKrsl_uvt6viF5olLC-5">
          <mxGeometry x="-0.0262" relative="1" as="geometry">
            <mxPoint x="10" y="-1" as="offset" />
          </mxGeometry>
        </mxCell>
        <mxCell id="BXMKrsl_uvt6viF5olLC-7" value="" style="endArrow=classic;startArrow=classic;html=1;rounded=0;" edge="1" parent="1">
          <mxGeometry width="50" height="50" relative="1" as="geometry">
            <mxPoint x="320" y="180" as="sourcePoint" />
            <mxPoint x="440" y="180" as="targetPoint" />
          </mxGeometry>
        </mxCell>
        <mxCell id="BXMKrsl_uvt6viF5olLC-8" value="67.5" style="edgeLabel;html=1;align=center;verticalAlign=middle;resizable=0;points=[];" vertex="1" connectable="0" parent="BXMKrsl_uvt6viF5olLC-7">
          <mxGeometry x="-0.1627" y="2" relative="1" as="geometry">
            <mxPoint as="offset" />
          </mxGeometry>
        </mxCell>
        <mxCell id="BXMKrsl_uvt6viF5olLC-9" value="" style="endArrow=classic;startArrow=classic;html=1;rounded=0;" edge="1" parent="1">
          <mxGeometry width="50" height="50" relative="1" as="geometry">
            <mxPoint x="150" y="310" as="sourcePoint" />
            <mxPoint x="150" y="210" as="targetPoint" />
          </mxGeometry>
        </mxCell>
        <mxCell id="BXMKrsl_uvt6viF5olLC-10" value="47.5" style="edgeLabel;html=1;align=center;verticalAlign=middle;resizable=0;points=[];" vertex="1" connectable="0" parent="BXMKrsl_uvt6viF5olLC-9">
          <mxGeometry x="0.1114" relative="1" as="geometry">
            <mxPoint y="6" as="offset" />
          </mxGeometry>
        </mxCell>
        <mxCell id="BXMKrsl_uvt6viF5olLC-11" value="" style="rounded=0;whiteSpace=wrap;html=1;" vertex="1" parent="1">
          <mxGeometry x="280" y="210" width="10" height="100" as="geometry" />
        </mxCell>
        <mxCell id="BXMKrsl_uvt6viF5olLC-12" value="" style="ellipse;whiteSpace=wrap;html=1;aspect=fixed;" vertex="1" parent="1">
          <mxGeometry x="460" y="220" width="80" height="80" as="geometry" />
        </mxCell>
        <mxCell id="BXMKrsl_uvt6viF5olLC-13" value="" style="ellipse;whiteSpace=wrap;html=1;aspect=fixed;" vertex="1" parent="1">
          <mxGeometry x="490" y="250" width="20" height="20" as="geometry" />
        </mxCell>
        <mxCell id="BXMKrsl_uvt6viF5olLC-14" value="" style="rounded=0;whiteSpace=wrap;html=1;" vertex="1" parent="1">
          <mxGeometry x="495" y="275" width="10" height="20" as="geometry" />
        </mxCell>
        <mxCell id="BXMKrsl_uvt6viF5olLC-15" value="" style="rounded=0;whiteSpace=wrap;html=1;" vertex="1" parent="1">
          <mxGeometry x="495" y="226" width="10" height="20" as="geometry" />
        </mxCell>
        <mxCell id="BXMKrsl_uvt6viF5olLC-16" value="" style="rounded=0;whiteSpace=wrap;html=1;rotation=90;" vertex="1" parent="1">
          <mxGeometry x="521" y="250" width="10" height="20" as="geometry" />
        </mxCell>
        <mxCell id="BXMKrsl_uvt6viF5olLC-17" value="" style="rounded=0;whiteSpace=wrap;html=1;rotation=90;" vertex="1" parent="1">
          <mxGeometry x="470" y="250" width="10" height="20" as="geometry" />
        </mxCell>
        <mxCell id="BXMKrsl_uvt6viF5olLC-18" value="" style="ellipse;whiteSpace=wrap;html=1;aspect=fixed;" vertex="1" parent="1">
          <mxGeometry x="220" y="220" width="15" height="15" as="geometry" />
        </mxCell>
        <mxCell id="BXMKrsl_uvt6viF5olLC-19" value="" style="ellipse;whiteSpace=wrap;html=1;aspect=fixed;" vertex="1" parent="1">
          <mxGeometry x="220" y="246" width="15" height="15" as="geometry" />
        </mxCell>
        <mxCell id="BXMKrsl_uvt6viF5olLC-20" value="" style="ellipse;whiteSpace=wrap;html=1;aspect=fixed;" vertex="1" parent="1">
          <mxGeometry x="220" y="270" width="15" height="15" as="geometry" />
        </mxCell>
        <mxCell id="BXMKrsl_uvt6viF5olLC-21" value="" style="ellipse;whiteSpace=wrap;html=1;aspect=fixed;" vertex="1" parent="1">
          <mxGeometry x="450" y="211" width="9" height="9" as="geometry" />
        </mxCell>
        <mxCell id="BXMKrsl_uvt6viF5olLC-22" value="AMS" style="text;html=1;strokeColor=none;fillColor=none;align=center;verticalAlign=middle;whiteSpace=wrap;rounded=0;" vertex="1" parent="1">
          <mxGeometry x="160" y="210" width="60" height="30" as="geometry" />
        </mxCell>
        <mxCell id="BXMKrsl_uvt6viF5olLC-23" value="IMD" style="text;html=1;strokeColor=none;fillColor=none;align=center;verticalAlign=middle;whiteSpace=wrap;rounded=0;" vertex="1" parent="1">
          <mxGeometry x="160" y="238.5" width="60" height="30" as="geometry" />
        </mxCell>
        <mxCell id="BXMKrsl_uvt6viF5olLC-24" value="TS OFF" style="text;html=1;strokeColor=none;fillColor=none;align=center;verticalAlign=middle;whiteSpace=wrap;rounded=0;" vertex="1" parent="1">
          <mxGeometry x="160" y="261" width="60" height="30" as="geometry" />
        </mxCell>
      </root>
    </mxGraphModel>
  </diagram>
</mxfile>
